<mxfile host="app.diagrams.net" agent="Mozilla/5.0 (Windows NT 10.0; Win64; x64) AppleWebKit/537.36 (KHTML, like Gecko) Chrome/135.0.0.0 Safari/537.36" version="26.2.13">
  <diagram name="第 1 页" id="y1FZ2o-yXDjcp4Lv5Tmd">
    <mxGraphModel dx="1428" dy="751" grid="1" gridSize="10" guides="1" tooltips="1" connect="1" arrows="1" fold="1" page="1" pageScale="1" pageWidth="827" pageHeight="1169" math="0" shadow="0">
      <root>
        <mxCell id="0" />
        <mxCell id="1" parent="0" />
        <mxCell id="qLxMmvXHQcVAoiXIS-2S-4" style="edgeStyle=orthogonalEdgeStyle;rounded=0;orthogonalLoop=1;jettySize=auto;html=1;entryX=0.5;entryY=0;entryDx=0;entryDy=0;" edge="1" parent="1" source="qLxMmvXHQcVAoiXIS-2S-1" target="qLxMmvXHQcVAoiXIS-2S-2">
          <mxGeometry relative="1" as="geometry" />
        </mxCell>
        <mxCell id="qLxMmvXHQcVAoiXIS-2S-5" style="edgeStyle=orthogonalEdgeStyle;rounded=0;orthogonalLoop=1;jettySize=auto;html=1;" edge="1" parent="1" source="qLxMmvXHQcVAoiXIS-2S-1" target="qLxMmvXHQcVAoiXIS-2S-3">
          <mxGeometry relative="1" as="geometry" />
        </mxCell>
        <mxCell id="qLxMmvXHQcVAoiXIS-2S-1" value="&lt;font style=&quot;font-size: 18px;&quot;&gt;disp算子&lt;/font&gt;" style="rounded=0;whiteSpace=wrap;html=1;" vertex="1" parent="1">
          <mxGeometry x="300" y="90" width="120" height="60" as="geometry" />
        </mxCell>
        <mxCell id="qLxMmvXHQcVAoiXIS-2S-2" value="&lt;span style=&quot;font-size: 18px;&quot;&gt;kernel&lt;/span&gt;" style="rounded=0;whiteSpace=wrap;html=1;" vertex="1" parent="1">
          <mxGeometry x="200" y="190" width="120" height="60" as="geometry" />
        </mxCell>
        <mxCell id="qLxMmvXHQcVAoiXIS-2S-3" value="&lt;font style=&quot;font-size: 18px;&quot;&gt;host&lt;/font&gt;" style="rounded=0;whiteSpace=wrap;html=1;" vertex="1" parent="1">
          <mxGeometry x="400" y="190" width="120" height="60" as="geometry" />
        </mxCell>
      </root>
    </mxGraphModel>
  </diagram>
</mxfile>
